<svg width="90" height="90" viewBox="0 0 90 90" fill="none" xmlns="http://www.w3.org/2000/svg">
<circle cx="3" cy="3" r="3" fill="#10B192"/>
<circle cx="51" cy="3" r="3" fill="#10B192"/>
<circle cx="27" cy="3" r="3" fill="#10B192"/>
<circle cx="75" cy="3" r="3" fill="#10B192"/>
<circle cx="75" cy="51" r="3" fill="#10B192"/>
<circle cx="75" cy="27" r="3" fill="#10B192"/>
<circle cx="75" cy="75" r="3" fill="#10B192"/>
<circle cx="3" cy="15" r="3" fill="#10B192"/>
<circle cx="51" cy="15" r="3" fill="#10B192"/>
<circle cx="27" cy="15" r="3" fill="#10B192"/>
<circle cx="75" cy="15" r="3" fill="#10B192"/>
<circle cx="75" cy="63" r="3" fill="#10B192"/>
<circle cx="75" cy="39" r="3" fill="#10B192"/>
<circle cx="75" cy="87" r="3" fill="#10B192"/>
<circle cx="15" cy="3" r="3" fill="#10B192"/>
<circle cx="63" cy="3" r="3" fill="#10B192"/>
<circle cx="39" cy="3" r="3" fill="#10B192"/>
<circle cx="87" cy="3" r="3" fill="#10B192"/>
<circle cx="87" cy="51" r="3" fill="#10B192"/>
<circle cx="87" cy="27" r="3" fill="#10B192"/>
<circle cx="87" cy="75" r="3" fill="#10B192"/>
<circle cx="15" cy="15" r="3" fill="#10B192"/>
<circle cx="63" cy="15" r="3" fill="#10B192"/>
<circle cx="39" cy="15" r="3" fill="#10B192"/>
<circle cx="87" cy="15" r="3" fill="#10B192"/>
<circle cx="87" cy="63" r="3" fill="#10B192"/>
<circle cx="87" cy="39" r="3" fill="#10B192"/>
<circle cx="87" cy="87" r="3" fill="#10B192"/>
</svg>