<svg xmlns="http://www.w3.org/2000/svg" version="1.1" xmlns:xlink="http://www.w3.org/1999/xlink" xmlns:svgjs="http://svgjs.com/svgjs" width="1440" height="560" preserveAspectRatio="none" viewBox="0 0 1440 560"><g mask="url(&quot;#SvgjsMask1006&quot;)" fill="none"><rect width="1440" height="560" x="0" y="0" fill="#0e2a47"></rect><path d="M743.411,474.535C792.911,473.436,846.056,462.788,870.765,419.882C895.439,377.036,879.404,324.924,853.994,282.51C829.44,241.524,791.132,209.644,743.411,207.307C691.456,204.762,640.042,226.654,612.327,270.673C582.779,317.603,575.874,379.12,605.868,425.766C634.066,469.62,691.287,475.693,743.411,474.535" fill="rgba(28, 83, 142, 0.4)" class="triangle-float3"></path><path d="M192.99307930379285 287.3007364062954L309.89112751551704 275.01425644495197 297.6046475541736 158.1162082332278 180.7065993424494 170.40268819457123z" fill="rgba(28, 83, 142, 0.4)" class="triangle-float2"></path><path d="M1231.9172704594894 478.23597472271877L1361.4129336134672 390.8900470312026 1144.5713427679732 348.7403115687409z" fill="rgba(28, 83, 142, 0.4)" class="triangle-float2"></path><path d="M648.5912680834973 402.6998347901248L586.9690178721564 365.67345138226733 562.2405678660407 476.62001840320727z" fill="rgba(28, 83, 142, 0.4)" class="triangle-float3"></path><path d="M708.15,696.333C757.846,697.102,815.032,699.005,841.592,656.995C869.277,613.205,850.024,557.864,824.023,513.054C798.146,468.459,759.709,426.853,708.15,427.029C656.812,427.204,618.717,469.044,593.641,513.841C569.272,557.376,555.158,610.714,581.675,652.974C607.064,693.435,660.389,695.594,708.15,696.333" fill="rgba(28, 83, 142, 0.4)" class="triangle-float2"></path><path d="M1092.5071105801264-42.779294267372165L964.3011976644057-42.77929426737216 964.3011976644057 85.42661864834866 1092.5071105801264 85.42661864834866z" fill="rgba(28, 83, 142, 0.4)" class="triangle-float2"></path><path d="M788.6387428901619 211.80421412237848L850.4987543824923 126.83162701818766 759.3055461504703 115.63450898809168z" fill="rgba(28, 83, 142, 0.4)" class="triangle-float3"></path><path d="M730.4364694288204 342.0541472997389L732.146479864923 440.0205795722495 830.1129121374336 438.3105691361469 828.402901701331 340.34413686363627z" fill="rgba(28, 83, 142, 0.4)" class="triangle-float3"></path><path d="M677.7459474428003 157.93160605067595L735.4277774510824 301.09180510179397 820.3362092696472 196.2386240831981z" fill="rgba(28, 83, 142, 0.4)" class="triangle-float2"></path><path d="M1496.7783818933879 512.0511727127164L1385.078305215053 387.99566964637717 1372.7228788270486 623.7512493910514z" fill="rgba(28, 83, 142, 0.4)" class="triangle-float3"></path><path d="M384.71809984183625 472.16930516958644L400.45116480564036 322.47919112199315 250.76105075804708 306.746126158189 235.02798579424294 456.4362402057823z" fill="rgba(28, 83, 142, 0.4)" class="triangle-float2"></path><path d="M945.842,492.809C983.52,494.947,1018.601,473.536,1037.985,441.156C1057.922,407.853,1060.928,366.331,1041.764,332.577C1022.372,298.422,985.075,277.028,945.842,278.867C909.287,280.581,880.569,308.102,864.329,340.896C849.912,370.008,854.827,403.012,870.187,431.637C886.622,462.265,911.139,490.84,945.842,492.809" fill="rgba(28, 83, 142, 0.4)" class="triangle-float2"></path><path d="M971.982,564.751C999.941,565.596,1029.382,559.472,1044.878,536.185C1061.946,510.536,1064.153,476.455,1048.329,450.02C1032.871,424.196,1001.985,412.029,971.982,414.411C945.59,416.506,927,437.561,914.095,460.678C901.602,483.057,893.881,509.6,906.339,531.998C919.079,554.902,945.785,563.959,971.982,564.751" fill="rgba(28, 83, 142, 0.4)" class="triangle-float2"></path><path d="M1225.8791236105337 591.6333788024792L1384.807136228949 574.9293715739269 1209.1751163819815 432.705366184064z" fill="rgba(28, 83, 142, 0.4)" class="triangle-float3"></path><path d="M1391.8165564349465 582.4989450375982L1489.0825877956265 541.2119642523359 1350.5295756496841 485.2329136769182z" fill="rgba(28, 83, 142, 0.4)" class="triangle-float1"></path><path d="M228.892,202.489C269.793,204.364,310.023,187.885,332.606,153.732C357.746,115.713,367.388,66.519,345.087,26.768C322.394,-13.682,275.263,-32.104,228.892,-31.134C184.284,-30.201,140.855,-8.41,120.824,31.459C102.356,68.218,118.467,110.144,140.441,144.92C160.581,176.794,191.228,200.762,228.892,202.489" fill="rgba(28, 83, 142, 0.4)" class="triangle-float1"></path></g><defs><mask id="SvgjsMask1006"><rect width="1440" height="560" fill="#ffffff"></rect></mask><style>
            @keyframes float1 {
                0%{transform: translate(0, 0)}
                50%{transform: translate(-10px, 0)}
                100%{transform: translate(0, 0)}
            }

            .triangle-float1 {
                animation: float1 5s infinite;
            }

            @keyframes float2 {
                0%{transform: translate(0, 0)}
                50%{transform: translate(-5px, -5px)}
                100%{transform: translate(0, 0)}
            }

            .triangle-float2 {
                animation: float2 4s infinite;
            }

            @keyframes float3 {
                0%{transform: translate(0, 0)}
                50%{transform: translate(0, -10px)}
                100%{transform: translate(0, 0)}
            }

            .triangle-float3 {
                animation: float3 6s infinite;
            }
        </style></defs></svg>