<svg xmlns="http://www.w3.org/2000/svg" version="1.1" xmlns:xlink="http://www.w3.org/1999/xlink" xmlns:svgjs="http://svgjs.com/svgjs" width="1440" height="650" preserveAspectRatio="none" viewBox="0 0 1440 650"><g clip-path="url(&quot;#SvgjsClipPath1027&quot;)" fill="none"><rect width="1440" height="650" x="0" y="0" fill="#0e2a47"></rect><circle r="108.335" cx="-106.45" cy="-42.56" stroke="#365aa3" stroke-opacity="0.25" stroke-width="2"></circle><circle r="108.335" cx="369.83" cy="489.74" stroke="#365aa3" stroke-opacity="0.25" stroke-width="2"></circle><circle r="108.335" cx="765.08" cy="838.42" stroke="#365aa3" stroke-opacity="0.25" stroke-width="2"></circle><circle r="125.125" cx="331.66" cy="595.94" stroke="#365aa3" stroke-opacity="0.25" stroke-width="2"></circle><circle r="173.41" cx="35.14" cy="379.5" stroke="#365aa3" stroke-opacity="0.25" stroke-width="2"></circle><circle r="155.125" cx="459.1" cy="394.1" stroke="#365aa3" stroke-opacity="0.25" stroke-width="2"></circle><circle r="109.095" cx="905.91" cy="381.14" stroke="#365aa3" stroke-opacity="0.25" stroke-width="2"></circle><circle r="131.825" cx="1051.62" cy="183.58" stroke="#365aa3" stroke-opacity="0.25" stroke-width="2"></circle><circle r="211.385" cx="1287.65" cy="56.56" stroke="#365aa3" stroke-opacity="0.25" stroke-width="2"></circle><circle r="70.5" cx="980.04" cy="462.13" stroke="#365aa3" stroke-opacity="0.25" stroke-width="2"></circle><circle r="95.85" cx="278.53" cy="358.03" stroke="#365aa3" stroke-opacity="0.25" stroke-width="2"></circle><circle r="92.595" cx="938.68" cy="468.58" stroke="#365aa3" stroke-opacity="0.25" stroke-width="2"></circle><circle r="93.98" cx="1106.5" cy="36.08" stroke="#365aa3" stroke-opacity="0.25" stroke-width="2"></circle><circle r="136.4" cx="1380.47" cy="479.83" stroke="#365aa3" stroke-opacity="0.25" stroke-width="2"></circle><circle r="129.25" cx="959.21" cy="180.95" stroke="#365aa3" stroke-opacity="0.25" stroke-width="2"></circle><circle r="209.445" cx="1038.66" cy="632.85" stroke="#365aa3" stroke-opacity="0.25" stroke-width="2"></circle><circle r="140.17" cx="389.42" cy="382.56" stroke="#365aa3" stroke-opacity="0.25" stroke-width="2"></circle><circle r="96.54" cx="1154.33" cy="185.56" stroke="#365aa3" stroke-opacity="0.25" stroke-width="2"></circle><circle r="95.745" cx="1404.39" cy="451.55" stroke="#365aa3" stroke-opacity="0.25" stroke-width="2"></circle><circle r="60.92" cx="1065.58" cy="544.72" stroke="#365aa3" stroke-opacity="0.25" stroke-width="2"></circle><circle r="216.565" cx="618.62" cy="43.53" stroke="#365aa3" stroke-opacity="0.25" stroke-width="2"></circle><circle r="100.23" cx="643.41" cy="173.54" stroke="#365aa3" stroke-opacity="0.25" stroke-width="2"></circle><circle r="148.405" cx="1140.44" cy="234.95" stroke="#365aa3" stroke-opacity="0.25" stroke-width="2"></circle><circle r="128.565" cx="359.28" cy="603.81" stroke="#365aa3" stroke-opacity="0.25" stroke-width="2"></circle><circle r="208.035" cx="1201.55" cy="625.35" stroke="#365aa3" stroke-opacity="0.25" stroke-width="2"></circle><circle r="117.535" cx="290.46" cy="481.93" stroke="#365aa3" stroke-opacity="0.25" stroke-width="2"></circle><circle r="75.1" cx="790.98" cy="110.32" stroke="#365aa3" stroke-opacity="0.25" stroke-width="2"></circle><circle r="71.845" cx="883.51" cy="604.59" stroke="#365aa3" stroke-opacity="0.25" stroke-width="2"></circle><circle r="59.925" cx="650.26" cy="399.23" stroke="#365aa3" stroke-opacity="0.25" stroke-width="2"></circle><circle r="139.165" cx="1411.49" cy="54.03" stroke="#365aa3" stroke-opacity="0.25" stroke-width="2"></circle><circle r="79.875" cx="397.98" cy="366.37" stroke="#365aa3" stroke-opacity="0.25" stroke-width="2"></circle><circle r="77.32" cx="648.26" cy="199.97" stroke="#365aa3" stroke-opacity="0.25" stroke-width="2"></circle><circle r="111.95" cx="850.28" cy="470.83" stroke="#365aa3" stroke-opacity="0.25" stroke-width="2"></circle><circle r="148.75" cx="1053.03" cy="502.96" stroke="#365aa3" stroke-opacity="0.25" stroke-width="2"></circle><circle r="158.765" cx="1366.48" cy="30.27" stroke="#365aa3" stroke-opacity="0.25" stroke-width="2"></circle><circle r="132.665" cx="161.04" cy="612.8" stroke="#365aa3" stroke-opacity="0.25" stroke-width="2"></circle><circle r="65.125" cx="1118.23" cy="549.24" stroke="#365aa3" stroke-opacity="0.25" stroke-width="2"></circle><circle r="215.455" cx="1408.46" cy="603.53" stroke="#365aa3" stroke-opacity="0.25" stroke-width="2"></circle><circle r="138.44" cx="307.62" cy="290.17" stroke="#365aa3" stroke-opacity="0.25" stroke-width="2"></circle><circle r="208.33" cx="459.35" cy="372.35" stroke="#365aa3" stroke-opacity="0.25" stroke-width="2"></circle><circle r="96.495" cx="611.19" cy="581.74" stroke="#365aa3" stroke-opacity="0.25" stroke-width="2"></circle><circle r="193.14" cx="1114.76" cy="71.31" stroke="#365aa3" stroke-opacity="0.25" stroke-width="2"></circle><circle r="99.035" cx="934.73" cy="226.02" stroke="#365aa3" stroke-opacity="0.25" stroke-width="2"></circle><circle r="142.69" cx="1147.13" cy="11.39" stroke="#365aa3" stroke-opacity="0.25" stroke-width="2"></circle><circle r="106.465" cx="857.02" cy="268.72" stroke="#365aa3" stroke-opacity="0.25" stroke-width="2"></circle><circle r="122.105" cx="632.28" cy="129.32" stroke="#365aa3" stroke-opacity="0.25" stroke-width="2"></circle><circle r="86.935" cx="381.53" cy="581.91" stroke="#365aa3" stroke-opacity="0.25" stroke-width="2"></circle><circle r="155.445" cx="1316.66" cy="64.52" stroke="#365aa3" stroke-opacity="0.25" stroke-width="2"></circle><circle r="210.535" cx="1378.56" cy="21.05" stroke="#365aa3" stroke-opacity="0.25" stroke-width="2"></circle><circle r="196.505" cx="1325.82" cy="620.25" stroke="#365aa3" stroke-opacity="0.25" stroke-width="2"></circle><circle r="122.695" cx="31.29" cy="123.42" stroke="#365aa3" stroke-opacity="0.25" stroke-width="2"></circle><circle r="140.095" cx="543.21" cy="184.94" stroke="#365aa3" stroke-opacity="0.25" stroke-width="2"></circle><circle r="92.17" cx="1359.4" cy="602.07" stroke="#365aa3" stroke-opacity="0.25" stroke-width="2"></circle><circle r="58.63" cx="226.45" cy="464.41" stroke="#365aa3" stroke-opacity="0.25" stroke-width="2"></circle><circle r="98.78" cx="869.66" cy="473.84" stroke="#365aa3" stroke-opacity="0.25" stroke-width="2"></circle><circle r="175.43" cx="263.48" cy="34.86" stroke="#365aa3" stroke-opacity="0.25" stroke-width="2"></circle><circle r="138.695" cx="607.17" cy="501.53" stroke="#365aa3" stroke-opacity="0.25" stroke-width="2"></circle><circle r="100.425" cx="250.49" cy="249.76" stroke="#365aa3" stroke-opacity="0.25" stroke-width="2"></circle><circle r="140.085" cx="227.96" cy="179.99" stroke="#365aa3" stroke-opacity="0.25" stroke-width="2"></circle><circle r="113.02" cx="1249.04" cy="212.75" stroke="#365aa3" stroke-opacity="0.25" stroke-width="2"></circle><circle r="183.905" cx="1351.17" cy="589.94" stroke="#365aa3" stroke-opacity="0.25" stroke-width="2"></circle><circle r="212.67" cx="445.03" cy="544.78" stroke="#365aa3" stroke-opacity="0.25" stroke-width="2"></circle><circle r="121.685" cx="861.44" cy="593.16" stroke="#365aa3" stroke-opacity="0.25" stroke-width="2"></circle><circle r="129.855" cx="73.87" cy="521.84" stroke="#365aa3" stroke-opacity="0.25" stroke-width="2"></circle><circle r="67.695" cx="612.94" cy="641.34" stroke="#365aa3" stroke-opacity="0.25" stroke-width="2"></circle><circle r="189.32" cx="297.8" cy="469.54" stroke="#365aa3" stroke-opacity="0.25" stroke-width="2"></circle><circle r="189.735" cx="1168.53" cy="475.37" stroke="#365aa3" stroke-opacity="0.25" stroke-width="2"></circle><circle r="150.595" cx="1220.91" cy="538.76" stroke="#365aa3" stroke-opacity="0.25" stroke-width="2"></circle><circle r="183" cx="1019.93" cy="601.78" stroke="#365aa3" stroke-opacity="0.25" stroke-width="2"></circle><circle r="96.5" cx="87.06" cy="114.13" stroke="#365aa3" stroke-opacity="0.25" stroke-width="2"></circle><circle r="107.04" cx="1158.73" cy="213.41" stroke="#365aa3" stroke-opacity="0.25" stroke-width="2"></circle><circle r="132.945" cx="210.78" cy="442.65" stroke="#365aa3" stroke-opacity="0.25" stroke-width="2"></circle></g><defs><clipPath id="SvgjsClipPath1027"><rect width="1440" height="650" x="0" y="0"></rect></clipPath></defs></svg>