<?xml version="1.0" encoding="utf-8"?>
<!-- Generator: Adobe Illustrator 26.0.1, SVG Export Plug-In . SVG Version: 6.00 Build 0)  -->
<svg version="1.1" id="Layer_1" xmlns="http://www.w3.org/2000/svg" xmlns:xlink="http://www.w3.org/1999/xlink" x="0px" y="0px"
	 viewBox="0 0 1345.9 500" style="enable-background:new 0 0 1345.9 500;" xml:space="preserve">
<style type="text/css">
	.st0{fill:#92E3A9;}
	.st1{opacity:0.8;fill:#FFFFFF;enable-background:new    ;}
	.st2{clip-path:url(#SVGID_00000014608306207980044130000009397850136546977668_);}
	.st3{fill:none;stroke:#93C0FF;stroke-width:3;stroke-linecap:round;stroke-linejoin:round;}
	.st4{opacity:0.5;fill:#FFFFFF;enable-background:new    ;}
	.st5{fill:#B8B8B8;}
	.st6{fill:#263238;}
	.st7{opacity:0.3;enable-background:new    ;}
	.st8{fill:#FFFFFF;stroke:#263238;stroke-width:1.514;stroke-linecap:round;stroke-linejoin:round;}
	.st9{fill:#263238;stroke:#263238;stroke-width:1.514;stroke-linecap:round;stroke-linejoin:round;}
	.st10{fill:#92E3A9;stroke:#263238;stroke-width:1.514;stroke-linecap:round;stroke-linejoin:round;}
	.st11{fill:#737373;stroke:#263238;stroke-width:1.514;stroke-linecap:round;stroke-linejoin:round;}
	.st12{fill:none;stroke:#263238;stroke-width:1.514;stroke-linecap:round;stroke-linejoin:round;}
	.st13{fill:none;stroke:#FFFFFF;stroke-width:1.514;stroke-linecap:round;stroke-linejoin:round;}
	.st14{fill:none;stroke:#263238;stroke-width:4.542;stroke-linecap:round;stroke-linejoin:round;}
	g#people-left {
		animation:move 10s infinite ease-in-out;
	}
	g#people-right {
		animation:move 10s infinite ease-in-out alternate 2s;
	}
	g#aliizadi polyline{
		animation:move2 3s infinite linear alternate;
	}
	@keyframes move {
		0% {
			transform:translateX(0);
		}
		50% {
			transform:translateX(60px);
		}
		100% {
			transform:translateX(0);
		}
	}
	@keyframes move2 {
		from {
			transform:translateX(0);
		}
		to {
			transform:translateX(200px);
		}
	}
</style>
<g id="freepik--background-simple--inject-14">
	<path class="st0" d="M449.3,358.4c0,0,36.1,82.4,127.5,109.3c91.4,26.9,188.9-9,268.7-35.9c79.7-27,121.7-96,103.9-166.7
		c-17.8-70.8-84.9-65.7-147.6-128.5S732,47.4,645.2,28.9s-181.8,54.5-205.6,158C415.9,290.3,449.3,358.4,449.3,358.4z"/>
	<path class="st1" d="M449.3,358.4c0,0,36.1,82.4,127.5,109.3c91.4,26.9,188.9-9,268.7-35.9c79.7-27,121.7-96,103.9-166.7
		c-17.8-70.8-84.9-65.7-147.6-128.5S732,47.4,645.2,28.9s-181.8,54.5-205.6,158C415.9,290.3,449.3,358.4,449.3,358.4z"/>
</g>
<g id="Layer_2">
	<g id="izadiclip">
		<defs>
			<rect id="SVGID_1_" x="335" y="233.5" width="772.2" height="65.4"/>
		</defs>
		<clipPath id="SVGID_00000129181049636643946720000003131541125907980175_">
			<use xlink:href="#SVGID_1_"  style="overflow:visible;"/>
		</clipPath>
		<g id="aliizadi" style="clip-path:url(#SVGID_00000129181049636643946720000003131541125907980175_);">
			<g>
				<g>
					<g>
						<polyline class="st3" points="-128.1,275.7 -109.5,264 -113.3,275.4 -100.9,267.6 -98,275.5 -85.4,267.6 -67.5,266.2 
							-60.1,261.6 -79,283 -42,259.9 -56.6,278.9 -40.8,269 -36.6,275.5 -24,267.6 -22.1,276.1 -15.7,272.1 -16.9,282.6 23.8,257.2 
							-8.5,286.5 27.2,264.2 25,275.5 37.6,267.6 39.8,275.5 52.4,267.6 70.1,265.6 75.7,262.1 69.8,275.5 82.4,267.6 79.1,278.7 
							112.8,257.7 99.2,275.5 111.7,267.6 107.6,280 143,257.9 139.8,269.9 148.5,264.5 155.3,269.4 172.8,258.5 165.6,272.9 
							187.4,259.2 166.5,281.4 200.2,260.3 175,285.6 193,274.3 196.5,281 232,258.8 220.6,275.5 231.6,268.6 236.1,275.5 
							258.1,261.8 260.5,269.6 280.2,257.4 268.8,273.8 283.3,264.7 287.5,271.4 301.6,262.5 305.8,269 321.3,259.3 297.4,284.2 
							326.3,266.2 327.5,275.5 340.1,267.6 341.2,276.4 365.1,261.5 357.1,275.5 386.6,257.1 363.9,280.6 400,258 372.3,285.3 
							386.4,276.5 404.8,274.8 411.7,270.5 406.3,283.5 445.4,259.1 434.6,275.5 447.2,267.6 434.3,284.8 456.9,270.7 459.8,278.8 
							486.8,261.9 474.1,278.7 477.2,276.8 498.6,272.6 506.7,267.5 511.5,273.8 527.1,264 508.6,285.4 525.9,274.6 539.5,275.5 
							552.1,267.6 549.8,278.2 564.3,269.1 568.5,275.5 581,267.6 575.6,280.4 590.4,271.2 582.7,285.8 624.8,259.5 602.1,283.2 
							629.3,266.2 622,280.1 657.2,258.1 640,278.1 672.2,258 658.7,275.5 671.2,267.6 689.8,265.4 690.8,264.8 687.3,276.7 
							688.9,275.8 699.4,278.6 721.2,265 719,275.5 731.6,267.6 727.5,279.6 742,270.5 738.7,281.7 777.6,257.4 747.7,286.1 
							780,265.9 779.5,275.6 781,274.7 793,276.9 799.8,272.7 798.7,283.1 836.4,259.6 828.5,273.3 846.6,262 850.6,268.4 
							855.9,265.1 849.2,279.1 853.6,276.3 857.6,283.6 868.1,277.1 885,276.5 891.3,272.5 899,276.9 918.1,265 917.3,275.4 
							929.9,267.6 933,275.4 945.6,267.6 933.5,284.5 977.6,256.9 971.8,269.9 972.9,269.2 965.4,283.5 993.7,265.9 987.7,278.8 
							996.4,273.4 990.5,286.2 1019,268.3 1018.1,277.9 1026.7,272.6 1042.8,271.8 1063.3,258.9 1059,271.6 1083.1,256.5 
							1074.5,271.1 1090.2,261.3 1080.6,276.9 1095.3,267.7 1098.6,275.4 1111.2,267.6 1109.4,278 1112.7,275.9 1118.6,281.3 
							1124.9,277.4 1143.7,275.4 1156.2,267.6 1157.1,276.7 1166.4,270.9 1175.2,275.4 1187.8,267.6 1189.4,275.4 1201.9,267.6 
							1204.7,275.3 1220.2,265.6 1224.6,272 1248.2,257.2 1233.7,275.2 1256.2,261.2 1248.4,275.8 1272.3,260.9 1251.1,283.3 
							1277.6,266.8 1279.2,275.4 1291.8,267.6 1276.2,286.5 1299.1,272.1 1309.5,275.4 1322.1,267.6 1316.5,280 1334.1,269.1 
							1342.1,273.3 1349.7,268.6 1340.6,283.8 1381.7,258.2 1353,285.8 1390.2,262.6 1374.1,282.1 1387.9,273.5 						"/>
					</g>
				</g>
			</g>
		</g>
	</g>
</g>
<g id="freepik--Trees--inject-14">
	<g>
		<path class="st0" d="M1151,247c0,0,33.1,3.3,49.9,23.8c0,0,17.8-23.8,49.6-23.3c22.7-27.4,18.9-68-8.5-90.7s-68-18.9-90.7,8.5
			C1131.8,189,1131.6,223.2,1151,247L1151,247z"/>
		<path class="st4" d="M1151,247c0,0,33.1,3.3,49.9,23.8c0,0,17.8-23.8,49.6-23.3c22.7-27.4,18.9-68-8.5-90.7s-68-18.9-90.7,8.5
			C1131.8,189,1131.6,223.2,1151,247L1151,247z"/>
		<polygon class="st5" points="1199.8,146.6 1198.7,361.3 1204.3,361.3 		"/>
		<path class="st5" d="M1201.5,264.6c0,0,11.2-20.1,31.3-26.3c0,0-21.2,5-31.8,22.4L1201.5,264.6z"/>
		<path class="st5" d="M1201.5,207.5c0,0,11.2-20.1,31.3-26.3c0,0-21.2,5-31.8,22.4L1201.5,207.5z"/>
		<path class="st5" d="M1201.5,236c0,0,11.2-20.1,31.3-26.3c0,0-21.2,5-31.8,22.4L1201.5,236z"/>
		<path class="st5" d="M1199.8,222c0,0-10.8-20.1-30.2-26.3c0,0,20.5,5,30.8,22.4L1199.8,222z"/>
		<path class="st5" d="M1199.8,250c0,0-10.8-20.1-30.2-26.3c0,0,20.5,5,30.8,22.4L1199.8,250z"/>
		<path class="st0" d="M1016.4,267.8c0,0,27.1,2.7,40.8,19.5c0,0,14.5-19.5,40.6-19.1c18.6-22.4,15.4-55.6-7-74.2s-55.6-15.4-74.2,7
			C1000.6,220.3,1000.5,248.3,1016.4,267.8L1016.4,267.8z"/>
		<path class="st4" d="M1016.4,267.8c0,0,27.1,2.7,40.8,19.5c0,0,14.5-19.5,40.6-19.1c18.6-22.4,15.4-55.6-7-74.2s-55.6-15.4-74.2,7
			C1000.6,220.3,1000.5,248.3,1016.4,267.8L1016.4,267.8z"/>
		<polygon class="st5" points="1056.3,185.5 1055.4,361.3 1060,361.3 		"/>
		<path class="st5" d="M1057.7,282.1c0,0,9.2-16.5,25.6-21.5c0,0-17.3,4.1-26,18.3L1057.7,282.1z"/>
		<path class="st5" d="M1057.7,235.4c0,0,9.2-16.5,25.6-21.5c0,0-17.3,4.1-26,18.3L1057.7,235.4z"/>
		<path class="st5" d="M1057.7,258.8c0,0,9.2-16.5,25.6-21.5c0,0-17.3,4.1-26,18.3L1057.7,258.8z"/>
		<path class="st5" d="M1056.4,247.3c0,0-8.8-16.5-24.7-21.5c0,0,16.8,4.1,25.2,18.3L1056.4,247.3z"/>
		<path class="st5" d="M1056.4,270.2c0,0-8.8-16.5-24.7-21.5c0,0,16.8,4.1,25.2,18.3L1056.4,270.2z"/>
	</g>
	<g>
		<path class="st0" d="M96.8,247c0,0,33.1,3.3,49.9,23.8c0,0,17.8-23.8,49.6-23.3c22.7-27.4,18.9-68-8.5-90.7
			c-27.4-22.7-68-18.9-90.7,8.5C77.5,189,77.4,223.2,96.8,247L96.8,247z"/>
		<path class="st4" d="M96.8,247c0,0,33.1,3.3,49.9,23.8c0,0,17.8-23.8,49.6-23.3c22.7-27.4,18.9-68-8.5-90.7
			c-27.4-22.7-68-18.9-90.7,8.5C77.5,189,77.4,223.2,96.8,247L96.8,247z"/>
		<polygon class="st5" points="145.6,146.6 144.5,361.3 150.1,361.3 		"/>
		<path class="st5" d="M147.3,264.6c0,0,11.2-20.1,31.3-26.3c0,0-21.2,5-31.8,22.4L147.3,264.6z"/>
		<path class="st5" d="M147.3,207.5c0,0,11.2-20.1,31.3-26.3c0,0-21.2,5-31.8,22.4L147.3,207.5z"/>
		<path class="st5" d="M147.3,236c0,0,11.2-20.1,31.3-26.3c0,0-21.2,5-31.8,22.4L147.3,236z"/>
		<path class="st5" d="M145.6,222c0,0-10.8-20.1-30.2-26.3c0,0,20.5,5,30.8,22.4L145.6,222z"/>
		<path class="st5" d="M145.6,250c0,0-10.8-20.1-30.2-26.3c0,0,20.5,5,30.8,22.4L145.6,250z"/>
		<path class="st0" d="M242,267.8c0,0,27.1,2.7,40.8,19.5c0,0,14.5-19.5,40.6-19.1c18.6-22.4,15.4-55.6-7-74.2
			c-22.4-18.6-55.6-15.4-74.2,7C226.3,220.3,226.1,248.3,242,267.8L242,267.8z"/>
		<path class="st4" d="M242,267.8c0,0,27.1,2.7,40.8,19.5c0,0,14.5-19.5,40.6-19.1c18.6-22.4,15.4-55.6-7-74.2
			c-22.4-18.6-55.6-15.4-74.2,7C226.3,220.3,226.1,248.3,242,267.8L242,267.8z"/>
		<polygon class="st5" points="282,185.5 281.1,361.3 285.7,361.3 		"/>
		<path class="st5" d="M283.4,282.1c0,0,9.2-16.5,25.6-21.5c0,0-17.3,4.1-26,18.3L283.4,282.1z"/>
		<path class="st5" d="M283.4,235.4c0,0,9.2-16.5,25.6-21.5c0,0-17.3,4.1-26,18.3L283.4,235.4z"/>
		<path class="st5" d="M283.4,258.8c0,0,9.2-16.5,25.6-21.5c0,0-17.3,4.1-26,18.3L283.4,258.8z"/>
		<path class="st5" d="M282,247.3c0,0-8.8-16.5-24.7-21.4c0,0,16.8,4.1,25.2,18.3L282,247.3z"/>
		<path class="st5" d="M282,270.2c0,0-8.8-16.5-24.7-21.5c0,0,16.8,4.1,25.2,18.3L282,270.2z"/>
	</g>
</g>
<g id="freepik--Text--inject-14">
	<path class="st6" d="M603.4,91.1c0-11.2,5.9-17.6,16.7-17.6c10.8,0,16.7,6.4,16.7,17.6v36.3c0,11.2-5.9,17.6-16.7,17.6
		s-16.7-6.4-16.7-17.6V91.1z M614.4,128.1c0,5,2.2,6.9,5.7,6.9c3.5,0,5.7-1.9,5.7-6.9V90.4c0-5-2.2-6.9-5.7-6.9
		c-3.5,0-5.7,1.9-5.7,6.9V128.1z"/>
	<path class="st6" d="M645,91.1c0-11.2,5.9-17.6,16.7-17.6s16.7,6.4,16.7,17.6v36.3c0,11.2-5.9,17.6-16.7,17.6
		c-10.8,0-16.7-6.4-16.7-17.6V91.1z M656,128.1c0,5,2.2,6.9,5.7,6.9c3.5,0,5.7-1.9,5.7-6.9V90.4c0-5-2.2-6.9-5.7-6.9
		c-3.5,0-5.7,1.9-5.7,6.9V128.1z"/>
	<path class="st6" d="M720.1,91.6v9.1c0,11.2-5.4,17.3-16.4,17.3h-5.2v26.2h-11V74.3h16.2C714.7,74.3,720.1,80.4,720.1,91.6z
		 M698.5,84.3V108h5.2c3.5,0,5.4-1.6,5.4-6.6V90.9c0-5-1.9-6.6-5.4-6.6L698.5,84.3z"/>
	<path class="st6" d="M742.6,73.5c10.7,0,16.2,6.4,16.2,17.6v2.2h-10.4v-2.9c0-5-2-6.9-5.5-6.9s-5.5,1.9-5.5,6.9
		c0,14.4,21.5,17.1,21.5,37c0,11.2-5.6,17.6-16.4,17.6s-16.4-6.4-16.4-17.6v-4.3h10.4v5c0,5,2.2,6.8,5.7,6.8s5.7-1.8,5.7-6.8
		c0-14.4-21.5-17.1-21.5-37C726.4,79.9,731.9,73.5,742.6,73.5z"/>
	<path class="st6" d="M768.6,128.7l-1.4-25.2V74.3h11v29.1l-1.4,25.2H768.6z M778,133.6v10.6h-10.5v-10.6H778z"/>
</g>
<g id="freepik--Characters--inject-14">
	<g id="people-right">
		<path class="st7" d="M1134.9,431.8c0,4.3-26.6,7.8-59.5,7.8c-32.9,0-59.5-3.5-59.5-7.8s26.6-7.8,59.5-7.8
			S1134.9,427.5,1134.9,431.8z"/>
		<path class="st7" d="M1272.8,431.8c0,4.3-26.7,7.8-59.5,7.8c-32.9,0-59.6-3.5-59.6-7.8c0-4.3,26.7-7.8,59.5-7.8
			S1272.8,427.5,1272.8,431.8z"/>
		<path class="st8" d="M1081.9,203.9c0,0-2.4,10.1-2.4,11.8c0,1.1-0.1,2.1-0.3,3.1c0,0-5.2,6.3-4.5,8c0.8,1.3,2.1,2.4,3.5,3.1
			c0,0,2.8,10.1,5.6,10.8c2.9,0.5,5.8,0.9,8.7,1l1,8.3l13.9-2.1l-3.5-12.5l1.4-10.8c0,0,2.4-4.5,0-11.8s-7.6-7.6-11.1-7.6
			C1090,205,1085.9,204.6,1081.9,203.9z"/>
		<path class="st9" d="M1088.1,198.7c0,0-12.2-0.4-11.8,2.8c0.3,3.1,12.9,7.2,12.9,7.2s-4.2,2.8-2.1,5.6c2.1,2.8,7,5.2,7,5.2
			s-1.4,5.9,0.7,6.3c2.2,0.3,3.5-2.8,3.8-3.8c0.3-1,4.2-0.7,5.2,2.1c0.6,1.4,0.9,3,1,4.5c0,0,4.2-12.5,4.9-18.1
			S1094.7,198.7,1088.1,198.7z"/>
		<path class="st8" d="M1095.8,225.9c0,0,4.2-9.3,6.7-4.7c2.5,4.6,1.4,9.3-1,9.8s-4.5,1-4.5,1"/>
		<path class="st9" d="M1078.7,322.4c-0.7,0.8-11.8,24.7-13.2,32.7c-1.4,8-10.4,55.6-10.8,57.7c-0.4,2.1-19.5,6.3-20.9,6.6
			c-1.4,0.3,1.4,4.2,5.6,5.2s16,5.9,18.8,3.1c2.8-2.8,6.6-18.4,7.6-20.2c1-1.7,20.6-47.8,20.6-47.8s10-22.1,12.1-24.2
			c2.1-2.1-2.5-11.4-4.2-14.2C1092.6,318.6,1083.6,316.9,1078.7,322.4z"/>
		<path class="st9" d="M1076.7,322.7c0,0,4.9,23.3,7.3,31.6c2.3,7,5.7,13.6,10.1,19.5c2.8,3.8,16.3,37.6,16.3,37.6l2.1,5.2
			c0,0-0.7,2.1-4.5,4.9c-3.8,2.8-14.6,7.3-11.8,8.4c2.8,1.1,13.9,1,19.1,0.7c4.5-0.3,8.7-2.3,11.8-5.6c2.1-2.4-3.5-9.4-3.5-10.8
			s-12.2-43.8-12.9-45.9c-0.7-2.1-4.2-17-4.2-17v-17c0,0,1.7-3.1,1.7-10.1s-5.2-8.4-5.2-8.4l-28.5,2.8L1076.7,322.7z"/>
		<path class="st10" d="M1074.2,320.7c0,0,0.7,5.9,2.8,6.3c2.1,0.3,23.6,6.3,33-0.7c0,0,1.7-5.2,0.7-6.6c-1-1.4-3.5-0.7-16-0.7
			C1082.3,319,1074.2,319,1074.2,320.7z"/>
		<path class="st10" d="M1106.2,242.8c0,0-12.9,1.7-18.4,7.2s-10.4,15.7-12.9,25c-2.4,9.4-4.2,43.8-0.7,45.5
			c3.5,1.7,32.7,3.5,37.6,1.4c4.9-2-0.3-18.4-0.3-24.7c0-6.3,5.6-27.5,4.5-39.3S1106.2,242.8,1106.2,242.8z"/>
		<path class="st9" d="M1059.8,279c-0.2-14.3-6-26.5-13.8-31.8v-2.9l-21.4,0.2c-12,0.1-21.7,15.9-21.4,35.1s10.1,34.8,22.2,34.7
			l21.4-0.2v-2.9C1054.3,305.6,1059.9,293.3,1059.8,279z"/>
		<path class="st8" d="M1069.4,278.9c-0.2-15-6-27.9-14.1-33.4v-3.1l-9.2,0.1c-12.7,0.1-22.7,16.7-22.5,36.9s10.6,36.6,23.3,36.4
			l9.2-0.1v-3.1C1064,306.8,1069.5,293.8,1069.4,278.9z"/>
		<path class="st11" d="M1078.6,278.8c0.2,20.2-9.9,36.8-22.5,36.9s-23.1-16.2-23.3-36.4c-0.2-20.2,9.9-36.8,22.5-36.9
			C1067.9,242.2,1078.3,258.5,1078.6,278.8z"/>
		<path class="st9" d="M1073.3,278.1c0.1,9.6-4.7,17.4-10.7,17.5c-6,0.1-10.9-7.7-11-17.3c-0.1-9.7,4.7-17.3,10.7-17.5
			C1068.3,260.6,1073.2,268.5,1073.3,278.1z"/>
		<path class="st9" d="M1243.6,350.2c1.2-8.9,1.7-17.9,1.5-26.9c-4.7,2.2-32.1,3-34.6,3s-29.9-0.9-34.6-3c-0.2,9,0.3,18,1.4,26.9
			c1.9,11.7,18.5,58.7,18.9,60.9c0.5,2.2,1.1,4.3,1.9,6.4c0,0-9.5,6.8-13.6,9.5c-4.2,2.6-1.1,3.8,3,3.8c4.2,0,12.9-1.1,15.5-1.1
			c2.3,0,6.4-2,7.4-2.5c1,0.5,5,2.5,7.4,2.5c2.7,0,11.4,1.1,15.5,1.1s7.2-1.1,3-3.8c-4.2-2.6-13.6-9.5-13.6-9.5
			c0.8-2.1,1.4-4.3,1.9-6.4C1225.1,408.8,1241.8,361.9,1243.6,350.2z"/>
		<path class="st10" d="M1204.8,249.7c0,0-14.6,4.8-22.2,9.6c-7.6,4.8-15.1,30.8-15.1,31.8c-0.4,1.8-1,3.6-1.8,5.3
			c0,0-7.6-1.8-9.1,4.5c-1.5,6.3,7.6,14.4,12.4,14.6c4.8,0.3,6.3-1.3,6.3-1.3s-3,6.1-1.8,8.6c1.3,2.5,11.9,11.9,32.8,11.6
			c20.9-0.3,36.1-3.8,38.3-6.8c2.2-3,2.5-9.3,2.5-9.3s7.8-2,10.6-7.1c2.8-5,2.3-10.3,0.8-15.6c-1.5-5.3-9.3-20.7-14.6-29.2
			c-5.3-8.6-16.4-13.4-21.7-14.9C1217,250,1208.4,249.7,1204.8,249.7z"/>
		<path class="st8" d="M1209.3,271c2.1-0.7,8.7-6.5,11.2-12.4c1-2.2,1.7-4.6,2.1-7l-0.3-0.1c-5.3-1.5-13.9-1.8-17.3-1.8
			c0,0-3.1,1-7.1,2.5c0,3.1,0.6,6.2,1.7,9.1C1201.8,267.2,1207.2,271.7,1209.3,271z"/>
		<path class="st12" d="M1233.3,282.8c0,0,6.1,32.3,12.9,35.6"/>
		<path class="st12" d="M1175.3,314.3c0,0,7.6-28.5,8.1-31.3"/>
		<path class="st12" d="M1243.1,297.4c0,0-4.2,0.9-4.2,4"/>
		<path class="st12" d="M1171.9,297.8c0,0,4.7,3,4.2,7.7"/>
		<path class="st10" d="M1203.2,429.7c2.3,0,6.4-2,7.4-2.5c1,0.5,5,2.5,7.4,2.5c2.7,0,11.4,1.1,15.5,1.1c4.2,0,7.2-1.1,3-3.8
			c-3.6-2.3-11.2-7.7-13.2-9.1c-4.5,4.1-13.3,3.1-13.3,3.1c-1.8-0.3-3.6-0.6-5.3-1.1c-2.6-0.8-6.4-2.3-6.4-2.3s-9.5,6.8-13.6,9.5
			s-1.1,3.8,3,3.8S1200.5,429.7,1203.2,429.7z"/>
		<line class="st13" x1="1210" y1="417.7" x2="1210" y2="351.7"/>
		<polyline class="st12" points="1210.5,427.1 1210,420.9 1210,417.7 		"/>
		<line class="st13" x1="1204.7" y1="349.4" x2="1215.7" y2="349.4"/>
		<path class="st9" d="M1190.4,211.9c0,0-7.9,4.7-6.7,8.8c1.2,4.1,4.7,4.9,3.9,7.2s-3.5,3.7-0.4,5.2c1.8,0.8,3.6,1.4,5.5,1.8
			c0,0,2.9,10,7.9,11.8c5,1.8,13.6,0.6,19.7-0.2c4.2-0.4,7.7-3.4,8.8-7.5c0.6-2.2-2.6,0.4-4.1-2c-1.6-2.4,0.8-8.5,2.6-13.8
			c1.8-5.3-3.5-15.4-10.4-18.7C1210.2,201.2,1197.1,203,1190.4,211.9z"/>
		<path class="st8" d="M1203.6,246.1c-1,3.3-1.7,6.7-2,10.1c-0.3,4.3,3.3,9.1,7.1,8.8c3.8-0.3,7.1-7.8,7.6-11.6
			c0.5-3.7-1.3-13.9-1.3-13.9s-5.8,0.3-8.1,2.3C1205.5,243.1,1204.4,244.5,1203.6,246.1z"/>
		<path class="st8" d="M1198.4,217.4c0,0,0.2,5.9,6.1,11.6c3.6,3.4,7.8,6.1,12.4,7.9c-0.1,1.3-0.4,2.6-1,3.7c-0.5,1-1.6,1.6-2.7,1.4
			h-2c0,0-2.9,6.8-6.4,7.8c-3.5,1-12.1,0.3-13.3-8.4s-1.4-15.7-0.4-17.5C1192.1,222.1,1198.4,217.4,1198.4,217.4z"/>
		<path class="st8" d="M1260.3,293.5c0.9-1.8,1.4-3.8,1.6-5.8c0-2.6-4.9-6.4-5.8-7.3c-0.9-0.9-1.8-0.8-2,0.5c0,1.5,0.6,2.9,1.7,3.9
			c0.7,0.6,1.3,1.4,1.5,2.3c0.1,0.7-1.6,3.8-0.8,5.9C1257.4,295.1,1259.8,295.7,1260.3,293.5z"/>
		<path class="st14" d="M1064.5,278.8c0,0,21.3,6.8,34.1,22.7s21.2,13.6,37.1,8.3c15.9-5.3,22-24.2,43.9-8.3s26.5,21.9,44.7,12.9
			c18.2-9.1,28-31,44.7-23.5s9.1,46.3,10.6,65s-0.8,65.9,3,71.9s42.4,1.4,42.4,1.4"/>
		<path class="st10" d="M1104.4,253.5c0,0-4.2-6.9-10.5-5.1c-6.6,1.9-10,11.3-11.6,17.2c-1.5,5.9-2.6,12.2-5.4,17.7
			c0,0-12.5-0.2-19.5-2.2c-5.3-1.7-10.6-3.6-15.7-5.8c0,0-2.5-3.5-4.2-4.1c-1.7-0.7-6.3-2-6.6-1c-0.3,1,5.3,4.5,5.3,4.5
			s-10.4,1.4-11.4,2.6c-1,1.1,7.4,4.4,7.4,4.4s3.1,1,10.8-0.8c0,0,28,17.8,33.6,19.8c5.6,2,8.7,2.7,12.5-4.7
			c3.8-7.3,16.4-25.6,18.4-32.9"/>
		<path class="st8" d="M1049,278.3c-4.1-1.5-7.2-2.9-7.2-2.9s-2.5-3.5-4.2-4.1c-1.7-0.7-6.3-2-6.6-1c-0.3,1,5.3,4.5,5.3,4.5
			s-10.4,1.4-11.4,2.6c-1,1.1,7.4,4.4,7.4,4.4s3.1,1,10.8-0.8l3.9,2.5L1049,278.3z"/>
		<path class="st8" d="M1156.9,296.2c-0.9-1.8-1.4-3.8-1.6-5.8c0-2.6,4.9-6.4,5.8-7.3c0.9-0.9,1.8-0.8,2,0.5c0,1.5-0.6,2.9-1.7,3.9
			c-0.7,0.6-1.3,1.4-1.5,2.3c-0.1,0.6,1.6,3.8,0.8,5.9C1159.8,297.8,1157.4,298.4,1156.9,296.2z"/>
		<path class="st8" d="M1160.3,288.3c0,0-4,7.4-1.7,10.1c2.3,2.7,4.6-6,5-8.4S1161.8,285.2,1160.3,288.3z"/>
		<path class="st8" d="M1163.6,290.9c0,0-4,7.4-1.7,10.1c2.3,2.7,4.6-6,5-8.4S1165.1,287.7,1163.6,290.9z"/>
		<path class="st8" d="M1167.3,291.6c0,0-4,7.4-1.7,10.1c2.3,2.7,4.6-6,5-8.4S1168.7,288.4,1167.3,291.6z"/>
		<path class="st8" d="M1171.9,291.6c0,0-3.8,5.8-1.7,8c2.1,2.2,4.3-4.7,4.7-6.7C1175.4,290.9,1173.3,289,1171.9,291.6z"/>
		<path class="st8" d="M1257.6,288.6c0,0,4,7.4,1.7,10.1s-4.6-6-5-8.4C1253.8,287.8,1256.1,285.4,1257.6,288.6z"/>
		<path class="st8" d="M1254.3,291.2c0,0,4,7.4,1.7,10.1c-2.3,2.7-4.6-6-5-8.4C1250.5,290.4,1252.8,288,1254.3,291.2z"/>
		<path class="st8" d="M1250.6,291.8c0,0,4,7.4,1.7,10.1s-4.6-6-5-8.4C1246.8,291.1,1249.1,288.7,1250.6,291.8z"/>
		<path class="st8" d="M1245.9,291.9c0,0,3.8,5.9,1.7,8c-2.1,2.1-4.3-4.7-4.7-6.7S1244.5,289.3,1245.9,291.9z"/>
	</g>
	<g id="people-left">
		<path class="st7" d="M209,431.8c0,4.3-26.6,7.8-59.5,7.8s-59.5-3.5-59.5-7.8s26.7-7.8,59.5-7.8S209,427.5,209,431.8z"/>
		<path class="st7" d="M333.6,431.8c0,4.3-26.7,7.8-59.5,7.8s-59.5-3.5-59.5-7.8s26.7-7.8,59.5-7.8S333.6,427.5,333.6,431.8z"/>
		<path class="st8" d="M112.3,374.3v8.2c-2.8,3.1-4.9,6.9-6,11c-1.7,6.7-7.2,35.6-5.8,36.3c1.4,0.8,15,3.9,19.4,3.2
			c5-0.8,9.2-0.5,6.7-3.2c-2.5-2.7-15.6-10.4-15.6-10.4s14.5-20.9,17.7-28.6c3.2-7.7,3.7-19.7,3.7-19.7l-19.4-0.7L112.3,374.3z"/>
		<path class="st9" d="M119.9,433c5-0.8,9.2-0.5,6.7-3.2c-2.5-2.7-15.6-10.4-15.6-10.4l-0.5,3l-9.5-1.2c-0.7,4.8-1,8.4-0.5,8.7
			C102.1,430.5,115.6,433.6,119.9,433z"/>
		<path class="st8" d="M159.8,378.5l2.2,4c-1.9,3.6-2.2,7.9-0.8,11.7c2.2,7,7.5,32.6,7.5,34.1s3.2,2.5,5.8,2.5s9.6,0.5,10.6,0.5
			c1,0,8.2,1.2,10.7-0.2c2.5-1.5-3.2-4.5-6.9-6.2s-11.9-6.2-11.9-6.2s2-20.4,2-29.4s2-11.9-0.7-17.4c-2.7-5.5-19.9,2.5-19.9,2.5
			L159.8,378.5z"/>
		<path class="st9" d="M188.9,424.8c-3.7-1.7-11.9-6.2-11.9-6.2l-1,3.7l-8,1.4c0.5,2.5,0.8,4.2,0.8,4.5c0,1.4,3.2,2.5,5.8,2.5
			s9.6,0.5,10.6,0.5s8.2,1.2,10.7-0.2C198.4,429.5,192.7,426.5,188.9,424.8z"/>
		<path class="st8" d="M146.4,212.9c-2-3.3-4.2-6.5-6.7-9.5c-3.4-3.9-14.2-3.6-18.9,1.4c-4.7,5.1-3.2,14.2-1.4,16.7
			s5.4,14.6,5.4,14.6l0.9,8.6l20,7.1l-4.1-13.9c0,0,7.7-1.4,8.4-3.9c0.6-2.4-1.3-10.5-1.3-10.5s2.6-1.7,2.4-3.2
			C150.8,218.8,146.4,212.9,146.4,212.9z"/>
		<path class="st9" d="M123.5,222.1c0,0,3.4,2.9,5.3-0.4c1.9-3.3,3.3-6.5,3.3-9.4s-7-5.1-2.3-7s8,2.3,10.1-1.9s0.2-4.6-11-4.6
			s-16.8,5.6-14.5,12.6c1.9,5.2,4.2,10.2,7,14.9L123.5,222.1z"/>
		<path class="st12" d="M147.1,217.8c0,3-2.4,5.4-5.4,5.4s-5.4-2.4-5.4-5.4c0-3,2.4-5.4,5.4-5.4
			C144.7,212.5,147.1,214.9,147.1,217.8L147.1,217.8z"/>
		<path class="st12" d="M146.3,213.1c0.6-0.3,1.3-0.4,2-0.4c2.8,0,5,2.3,5,5.1c0,1.8-1,3.5-2.6,4.4"/>
		<line class="st12" x1="136.3" y1="217.8" x2="123.5" y2="222.1"/>
		<path class="st8" d="M127.2,224.9c0,0-2.6-5.4-5.1-4.3c-2.6,1-1.3,9.5,1.3,10.3c1.8,0.4,3.6-0.1,4.9-1.3c0,0,2.2,4.5,4.7,5.8"/>
		<path class="st10" d="M110.3,321.3l-1.6,20.6l-4.8,30.4c0,0,11.2,8.8,21.7,8.8s13.3-1.3,13.3-1.3l5.9-31.2l5.9,32.8
			c0,0,11.6-1.9,19.2-3.7c5.3-1.5,10.4-3.8,14.9-6.9l-15.5-40.3l-3.4-20.8c0,0-17.3,1.6-27.8,2.1s-24.3-2.1-24.3-2.1L110.3,321.3z"
			/>
		<path class="st9" d="M121.3,239.2c0,0,24.6,8.6,32.2,16.9c4.2,4.6,8.9,36.3,10.6,44c1.7,7.7,4.6,23.1,4.6,23.1s-15,6.8-26.6,7
			s-33.8-5.1-33.8-5.1s2.6-34.3,2.6-50.2c0-15.9,0.2-26.4,2.9-31.4C113.8,243.5,118.1,238.7,121.3,239.2z"/>
		<path class="st12" d="M114.8,327.6c0,0,1.3,22.4,0,30.7c-0.9,5.3-2.5,10.5-4.8,15.5"/>
		<path class="st12" d="M115.4,338.3c4.1-1.4,7.1-4.9,8-9.1"/>
		<path class="st12" d="M105.2,367.9c0,0,13.4,11.5,34.2,7.2"/>
		<path class="st12" d="M150.1,374.6c0,0,21.9-2.4,31.5-8.8"/>
		<path class="st9" d="M247.9,228.8c0,0-2.1,1.6-9.5,6.9c-7.4,5.4-1.6,13.5-1.6,13.5s-5.3,0.8-12.3,8.2s3.1,20.1,12.6,22
			c9.5,2,20.6-9.8,23.9-20.7c3.3-10.9-1.1-27.3-3.3-30.7C255.7,224.7,247.9,228.8,247.9,228.8z"/>
		<path class="st9" d="M275.8,227.3c0,0,3.7-5.7,0.3-13.8c-3.3-8.2-13.2-11.9-22.8-6c-6.6,3.9-9.7,11.8-7.6,19.2
			c0.9,3.8,5.7,9.6,6.7,9.7s9.7,3.2,15.6,0.5C273.8,234.1,275.8,227.3,275.8,227.3z"/>
		<path class="st11" d="M233.3,418.1c0,0,6.9,10.7,18.8,12.5c11.9,1.8,1.2-8.9-0.8-10.5C249.2,418.5,234.9,415,233.3,418.1z"/>
		<path class="st11" d="M296.8,420.9c0,0,13.1,3.2,12.1,6.1c-1,2.8-11.7,2.6-17.9,1c-6.2-1.6-12.1-4-11.3-6.6
			C280.5,418.7,296.8,420.9,296.8,420.9z"/>
		<path class="st10" d="M259.5,248.6c0,0-17.5,2.6-20.8,8.8c-3.2,6.2,1.3,40,1.3,40s-7.5,16.5-7.6,27.2c-0.1,10.6,4.6,29.4,4.3,34
			c-0.4,4.7-5.2,57.8-5.2,59.3c0,1.4,10.1,4.7,24.7,6.4c14.6,1.7,42.5-3.5,42.5-3.5s-0.5-31.4,0.9-50.1c1.5-18.7-0.6-35.5-4.3-42.5
			s-21-32.1-21-32.1s8.4-15.2,8.9-21.9c0.5-6.6-2.2-10.1-8.5-17.8C270.9,251.9,265.4,249.1,259.5,248.6z"/>
		<path class="st11" d="M274.4,296.1c0,0,8.4-15.2,8.9-21.9c0.5-6.6-2.2-10.1-8.5-17.8c-0.3-0.4-0.6-0.7-0.9-1.1l-0.2,0.2
			c-6.5,10.6-28,28.8-34.4,34.1c0.5,4.5,0.9,7.6,0.9,7.6s-7.5,16.5-7.6,27.2c0.1,4.8,0.6,9.7,1.4,14.5c15.2-8.7,35.5-24.9,46.5-34
			C277,299.9,274.4,296.1,274.4,296.1z"/>
		<path class="st8" d="M256.3,236.2c0.5,4,0.8,8,0.8,12c-0.2,3,0.7,9.7,5.8,11.9c5.1,2.1,8.2-0.8,8.2-3.8c-0.2-2.5-0.7-4.9-1.4-7.2
			l0.1-8.2C269.8,240.8,261.1,235.3,256.3,236.2z"/>
		<path class="st8" d="M251.7,230.9c0,0-3.7-3.3-3.8,1.4c-0.1,4.7,4.2,6.3,5.2,6.6c0.8,0.1,1.6-0.1,2.3-0.6c0,0,6.7,5.8,12.1,6.2
			s7.6-2.1,8.9-11.9c1.3-9.8-8.9-19.8-8.9-19.8S258.9,228.8,251.7,230.9z"/>
		<path class="st8" d="M169.1,323c0-1.7,0.2-3.3,0.8-4.9c0.9-2,5.8-3.1,6.9-3.5c1.1-0.4,1.6,0,1.3,1c-0.5,1.1-1.5,2-2.6,2.4
			c-0.7,0.2-1.4,0.6-1.9,1.2c-0.3,0.5-0.1,3.4-1.4,4.7C170.7,325.1,168.6,324.8,169.1,323z"/>
		<path class="st14" d="M279.9,279.5c0,0-17.3-2.3-25,9.8c-7.6,12.1-21.9,54.5-48.4,61.3c-26.5,6.8-34.1-47.7-50-46.2
			c-15.1,1.4-25.7,0-34.8,16.7c-4.9,8.9-29.1,106.3-40.6,107.3c-36.6,3.2-60.1,1.1-60.1,1.1"/>
		<path class="st9" d="M122.4,239.9c0,0-4-1.6-9.4,1.6c-5.3,3.2-19.7,38.2-18.7,41.9s16.3,10.7,24.8,13.1c8.5,2.4,24,5.3,24,5.3
			s4.8,7.5,6.4,7.7c2.3,0,4.7-0.3,6.9-0.8c0,0,2.9,2.4,4-0.3c1.1-2.7-1.1-6.1-3.5-8.8c-2.4-2.7-12.5-4-12.5-4l-27.5-19l11.6-21.3"/>
		<path class="st8" d="M149.6,309.5c2.3,0,4.7-0.3,6.9-0.8c0,0,2.9,2.4,4-0.3c1.1-2.7-1.1-6.1-3.5-8.8c-2.4-2.7-12.5-4-12.5-4
			l-27.5-19l4.1-7.6c-10.3-6.4-17.1-5.9-20.8-4.6c-3.7,8.8-6.5,17.2-6,19c1.1,3.7,16.3,10.7,24.8,13.1c8.5,2.4,24,5.3,24,5.3
			S148,309.3,149.6,309.5z"/>
		<path class="st9" d="M321.6,280.1c-1.2-12.6-7.2-23-14.5-27.1l-0.2-2.6l-18.9,1.7c-10.6,1-18,15.6-16.4,32.6
			c1.6,17,11.5,30,22.1,28.9l18.9-1.7l-0.2-2.6C318.7,304,322.7,292.7,321.6,280.1z"/>
		<path class="st8" d="M330.1,279.4c-1.2-13.3-7.2-24.2-14.9-28.5l-0.3-2.7l-8.1,0.8c-11.2,1-18.9,16.3-17.2,34.2
			c1.6,17.9,12.1,31.5,23.2,30.5l8.1-0.8l-0.2-2.7C327.4,304.4,331.3,292.6,330.1,279.4z"/>
		<path class="st8" d="M338.2,278.6c1.7,17.9-6,33.2-17.2,34.2s-21.6-12.6-23.3-30.5c-1.7-17.9,6-33.2,17.2-34.2
			S336.5,260.7,338.2,278.6z"/>
		<path class="st11" d="M346.9,268.1l-31.4,2.9c-1.8,0.2-3.5-1.2-3.7-3c0,0,0,0,0,0l0,0c-0.2-1.8,1.2-3.5,3-3.7c0,0,0,0,0,0
			l31.4-2.9c1.8-0.2,3.5,1.2,3.7,3c0,0,0,0,0,0l0,0C350.1,266.3,348.7,268,346.9,268.1C346.9,268.1,346.9,268.1,346.9,268.1z"/>
		<path class="st11" d="M349.2,293l-31.4,2.9c-1.8,0.2-3.5-1.2-3.7-3c0,0,0,0,0,0l0,0c-0.2-1.8,1.2-3.5,3-3.7c0,0,0,0,0,0l31.4-2.9
			c1.8-0.2,3.5,1.2,3.7,3l0,0C352.4,291.2,351.1,292.8,349.2,293C349.2,293,349.2,293,349.2,293z"/>
		<path class="st10" d="M248.7,250.9c0,0-7.5,1.4-11.1,5.8c-3.6,4.3-10.9,37.8-9.2,41.6s28.8,8.7,37.2,9.4c6.7,0.3,13.5,0,20.1-0.9
			c0,0,7.2-0.2,9.2-0.5c2-0.3,5.6-2.3,5.7-3c0.1-0.7-0.3-2.5-3-2.7c-2.7-0.2-8.5-2.2-9.2-2.2c1.7-0.5,3.5-0.8,5.3-1.1
			c0,0,0.4-1.4-2.6-1.4c-3,0-5.7-0.2-6.8,1.4c-0.8,1.3-1.5,2.6-2.1,4c0,0-16.7,1.2-25.8-3.3c-9.1-4.4-11.9-5.9-11.9-5.9l6.5-26"/>
		<path class="st8" d="M294.8,306.4c2-0.3,5.6-2.3,5.7-3c0.1-0.7-0.3-2.5-3-2.7c-2.7-0.2-8.5-2.2-9.2-2.2c1.7-0.5,3.5-0.8,5.3-1.1
			c0,0,0.4-1.4-2.6-1.4c-3,0-5.7-0.2-6.8,1.4c-0.8,1.3-1.5,2.6-2.1,4c0,0-16.7,1.2-25.8-3.3c-9.1-4.4-11.9-5.9-11.9-5.9l4-15.9
			c-5.2-2.1-10.6-3.5-16.1-4c-2.7,10.9-4.9,23.7-3.9,26c1.7,3.8,28.8,8.7,37.2,9.4c6.7,0.3,13.5,0,20.1-0.9
			C285.6,306.8,292.9,306.7,294.8,306.4z"/>
		<path class="st8" d="M172.7,320.2c0,0-5.6,4.2-4.7,6.9s5.5-2.9,6.7-4.6C175.8,320.9,174.9,318.4,172.7,320.2z"/>
		<path class="st8" d="M173.8,323.9c0,0-5.6,4.2-4.7,6.9c0.8,2.8,5.5-2.9,6.7-4.6C176.9,324.7,176,322.1,173.8,323.9z"/>
		<path class="st8" d="M176.5,326.4c0,0-5.6,4.2-4.7,6.9s5.5-2.9,6.7-4.6S178.7,324.5,176.5,326.4z"/>
		<path class="st8" d="M178.7,328.3c0,0-4.8,3.1-4,5.4c0.8,2.3,4.8-2,5.8-3.4C181.5,329,180.6,326.9,178.7,328.3z"/>
	</g>
</g>
</svg>
